<!--?xml version="1.0" encoding="UTF-8"?-->
<svg width="588px" height="467px" viewBox="0 0 588 467" version="1.1" xmlns="http://www.w3.org/2000/svg" xmlns:xlink="http://www.w3.org/1999/xlink" style="">
    <!-- Generator: Sketch 51.3 (57544) - http://www.bohemiancoding.com/sketch -->
    <title>Group</title>
    <desc>Created with Sketch.</desc>
    <defs></defs>
    <g id="Page-1" stroke="none" stroke-width="1" fill="none" fill-rule="evenodd">
        <g id="Group" transform="translate(4.000000, 3.000000)" stroke="#FFFFFF" stroke-width="9">
            <path d="M0.907142959,461.136145 C0.907142959,444.115198 0.445400976,417.847112 10.860268,408.124427 C18.1875606,401.284113 16.1529622,427.507358 19.891518,436.80802 C21.4603219,440.710842 24.0644169,444.149519 26.6688617,447.452552 C28.1017522,449.269785 30.7811544,454.05719 31.891518,452.02677 C33.9492139,448.264051 30.4956008,414.274939 37.282143,414.694739 C47.9476511,415.354483 55.3054761,448.961064 57.4501117,456.628333" id="Path" class="ArtyqDUB_0"></path>
            <path d="M68.9453125,432.929688 C68.9453125,437.292969 68.4369953,441.68596 68.9453125,446.019531 C70.6095612,460.207798 84.719341,446.843451 86.859375,441.679688 C87.7940831,439.424297 84.6576757,435.41045 86.859375,434.355469 C88.8826304,433.385992 87.3506621,438.973063 88.546875,440.871094 C91.0755123,444.883283 94.7057292,448.084635 97.7851562,451.691406" id="Path-2" class="ArtyqDUB_1"></path>
            <path d="M114.589844,408.882812 C114.589844,424.545573 112.87664,471.439877 114.589844,455.871094 L114.589844,443.734375 C116.108437,429.934122 128.808413,433.984505 134.195312,441.957031 C137.896283,447.434409 136.765625,452.53422 136.765625,458.789062" id="Path-3" class="ArtyqDUB_2"></path>
            <path d="M162.890625,436.136719 C157.615052,436.136719 149.27016,448.946919 152.78125,453.542969 C163.2281,467.217993 167.775309,451.425228 167.105469,447.152344 C166.471938,443.111072 165.513955,439.089137 164.070312,435.261719 C163.618141,434.06291 163.316785,438.069227 164.070312,439.105469 L166.855469,444.351562 C170.030995,448.718509 173.647135,452.747396 177.042969,456.945312" id="Path-4" class="ArtyqDUB_3"></path>
            <path d="M186.339844,442.507812 C188.480429,476.060839 186.251824,446.37195 187.363281,430.992188 C187.513949,428.907325 188.377642,423.515647 189.667969,425.160156 L191.289062,424.503906 C193.897309,427.828093 196.329469,431.436772 197.722656,435.425781 C199.405661,440.244603 196.577511,447.092805 200.371094,450.507812 C202.95304,452.832097 201.691914,443.561131 203.398438,440.535156 C204.533025,438.523327 206.473471,436.875339 208.585938,435.941406 C210.401231,435.138855 213.011997,434.336078 214.53125,435.613281 C218.100654,438.614001 218.48461,449.707613 218.886719,453.265625" id="Path-5" class="ArtyqDUB_4"></path>
            <path d="M234.199219,455.046875 C234.199219,449.903646 231.302655,443.867214 234.199219,439.617188 C236.750748,435.873419 243.566536,433.259116 247.265625,435.875 C251.328096,438.747857 245.06808,448.849652 249.726562,450.597656 C253.933186,452.176109 253.910504,441.98762 257.863281,439.851562 C272.722817,431.821556 269.058594,453.730983 269.058594,457.710938" id="Path-6" class="ArtyqDUB_5"></path>
            <path d="M295.507812,447.367188 C295.507812,419.954502 279.752414,439.850893 283.617188,450.949219 C284.371126,453.114275 286.247542,455.292956 288.480469,455.8125 C295.0523,457.341595 301.958451,457.083731 308.699219,456.785156 C309.699723,456.74084 310.21224,455.472656 310.96875,454.816406" id="Path-7" class="ArtyqDUB_6"></path>
            <path d="M338.875,433.117188 C336.384115,433.117188 333.844666,432.627724 331.402344,433.117188 C306.062521,438.195516 350.731476,473.372389 342.601562,445.148438 C340.470179,437.749089 336.735406,430.893586 334.34375,423.574219 C332.781302,418.792541 331.955729,413.800781 330.761719,408.914062" id="Path-8" class="ArtyqDUB_7"></path>
            <path d="M411.480469,405.972656 C411.480469,417.16212 422.113433,447.34434 419.164062,450.089844 C413.372912,455.480698 390.969486,461.612244 387.863281,449.902344" id="Path-9" class="ArtyqDUB_8"></path>
            <path d="M391.492188,411.175781 C425.948006,411.175781 413.085619,416.265438 432.519531,404.941406" id="Path-10" class="ArtyqDUB_9"></path>
            <path d="M440.730469,434.5625 C448.4283,434.5625 463.542185,432.224184 464.234375,444.671875 C464.372651,447.158494 465.434663,450.88245 463.25,452.078125 C456.18961,455.942306 430.137533,449.617253 443.699219,438.179688" id="Path-11" class="ArtyqDUB_10"></path>
            <path d="M481.398438,400.25 C487.217867,521.630057 469.311671,395.093207 502.175781,425.078125 C519.042946,440.467575 492.648999,460.247122 480.882812,438.675781" id="Path-12" class="ArtyqDUB_11"></path>
            <path d="M534.386719,433.089844 C548.198642,427.521686 552.838015,423.346084 529.546875,422.851562 C527.268994,422.803198 523.89793,421.838241 522.78125,423.824219 C511.917759,443.14458 538.708523,457.53986 550.71875,443.820312" id="Path-13" class="ArtyqDUB_12"></path>
            <path d="M548.050502,447.319856 C558.400086,434.532824 584.882509,403.248127 577.522776,384.08651 C576.024796,380.186406 563.793676,373.361664 560.677452,372.360981 C534.808249,364.053857 500.303151,358.456874 473.281771,363.093236 C345.150343,385.078186 512.951684,366.429028 384.646634,384.790746 C316.308874,394.570554 313.499926,390.809441 245.792432,393.34017 C201.125185,395.009716 306.403279,403.32082 181.763299,394.804981 C154.297146,392.928398 122.158374,384.962213 97.4028744,372.628591 C91.165487,369.521016 77.6995628,356.075773 85.0294487,347.029614 C133.401943,287.330831 216.021155,287.760677 284.187376,275.859529 C303.983882,272.403255 323.264908,265.867169 343.251645,263.77484 C378.32806,260.102835 431.298303,270.05709 440.654519,311.324852 C445.232387,331.516597 424.182405,337.417434 408.30192,341.142202 C364.712157,351.366181 354.620575,348.525152 303.955279,354.740998 C287.119555,356.80648 270.590974,361.392503 253.66579,362.50872 C227.024642,364.265707 200.271991,363.280675 173.573035,363.339719 C171.598977,363.344085 169.564212,363.305349 167.685622,362.698864 C166.266774,362.240803 164.890976,361.393122 163.953172,360.234038 C163.125753,359.211386 162.69706,357.816801 162.671462,356.501588 C162.359423,340.468864 159.743936,324.722785 170.57299,311.430487 C181.960131,297.453155 192.815926,303.078886 209.784847,300.021865 C258.337055,291.274983 324.463646,263.204401 358.406803,310.212159 C372.730835,330.049461 336.942034,325.173829 327.828878,327.219457 C308.921497,331.463591 259.493054,345.593288 234.644377,348.438086 C223.505351,349.713336 212.698572,343.229392 210.601761,331.768821 C207.606822,315.399338 222.248039,317.343784 239.595155,308.789602 C254.185391,301.594889 305.965054,303.376181 313.089219,305.043067 C320.105987,306.684824 313.185752,321.780971 308.342669,322.578542 C290.902652,325.450608 271.992351,328.684534 254.419322,330.761764 C253.175237,330.908822 247.656858,332.349429 247.320624,328.987089 C245.40612,309.842048 266.551667,310.007933 267.778678,317.698187 C271.171183,338.96061 263.418841,334.54904 259.792642,317.388323 C257.744544,307.69585 257.005522,297.732917 256.686962,287.83154 C255.969087,265.518806 254.781334,243.101499 256.686962,220.858701 C257.233292,214.481845 263.444292,209.464179 263.947634,203.083786 C265.894395,178.406562 265.081703,153.550007 263.947634,128.822105 C263.646399,122.253777 261.419359,115.903452 259.658838,109.568294 C258.37379,104.944108 257.068916,100.248734 254.827779,96.0047095 C252.409344,91.4249376 248.487258,87.7851804 245.813559,83.3495895 C242.676926,78.1460053 239.316437,72.938086 237.440193,67.159205 C235.830296,62.2006774 233.528188,56.4566502 235.517629,51.6378446 C238.821915,43.6342357 246.851845,38.5299242 252.102386,31.644586 C259.962683,21.3369232 267.252849,10.6067106 274.82808,0.0877729925" id="Path-14" class="ArtyqDUB_13"></path>
            <path d="M519.634581,436.249267 C532.21953,435.500057 526.40328,436.644244 537.170056,433.291476" id="Path-15" class="ArtyqDUB_14"></path>
        </g>
    </g>
<style data-made-with="vivus-instant">.ArtyqDUB_0{stroke-dasharray:197 199;stroke-dashoffset:198;animation:ArtyqDUB_draw 2000ms linear 0ms forwards;}.ArtyqDUB_1{stroke-dasharray:69 71;stroke-dashoffset:70;animation:ArtyqDUB_draw 2000ms linear 71ms forwards;}.ArtyqDUB_2{stroke-dasharray:111 113;stroke-dashoffset:112;animation:ArtyqDUB_draw 2000ms linear 142ms forwards;}.ArtyqDUB_3{stroke-dasharray:86 88;stroke-dashoffset:87;animation:ArtyqDUB_draw 2000ms linear 214ms forwards;}.ArtyqDUB_4{stroke-dasharray:124 126;stroke-dashoffset:125;animation:ArtyqDUB_draw 2000ms linear 285ms forwards;}.ArtyqDUB_5{stroke-dasharray:90 92;stroke-dashoffset:91;animation:ArtyqDUB_draw 2000ms linear 357ms forwards;}.ArtyqDUB_6{stroke-dasharray:67 69;stroke-dashoffset:68;animation:ArtyqDUB_draw 2000ms linear 428ms forwards;}.ArtyqDUB_7{stroke-dasharray:95 97;stroke-dashoffset:96;animation:ArtyqDUB_draw 2000ms linear 500ms forwards;}.ArtyqDUB_8{stroke-dasharray:81 83;stroke-dashoffset:82;animation:ArtyqDUB_draw 2000ms linear 571ms forwards;}.ArtyqDUB_9{stroke-dasharray:43 45;stroke-dashoffset:44;animation:ArtyqDUB_draw 2000ms linear 642ms forwards;}.ArtyqDUB_10{stroke-dasharray:72 74;stroke-dashoffset:73;animation:ArtyqDUB_draw 2000ms linear 714ms forwards;}.ArtyqDUB_11{stroke-dasharray:153 155;stroke-dashoffset:154;animation:ArtyqDUB_draw 2000ms linear 785ms forwards;}.ArtyqDUB_12{stroke-dasharray:89 91;stroke-dashoffset:90;animation:ArtyqDUB_draw 2000ms linear 857ms forwards;}.ArtyqDUB_13{stroke-dasharray:2373 2375;stroke-dashoffset:2374;animation:ArtyqDUB_draw 2000ms linear 928ms forwards;}.ArtyqDUB_14{stroke-dasharray:18 20;stroke-dashoffset:19;animation:ArtyqDUB_draw 2000ms linear 1000ms forwards;}@keyframes ArtyqDUB_draw{100%{stroke-dashoffset:0;}}@keyframes ArtyqDUB_fade{0%{stroke-opacity:1;}94.44444444444444%{stroke-opacity:1;}100%{stroke-opacity:0;}}</style></svg>