<!--?xml version="1.0" encoding="UTF-8"?-->
<svg width="559px" height="64px" viewBox="0 0 559 64" version="1.1" xmlns="http://www.w3.org/2000/svg" xmlns:xlink="http://www.w3.org/1999/xlink" style="">
    <!-- Generator: Sketch 51.3 (57544) - http://www.bohemiancoding.com/sketch -->
    <title>Group</title>
    <desc>Created with Sketch.</desc>
    <defs></defs>
    <g id="Page-1" stroke="none" stroke-width="1" fill="none" fill-rule="evenodd">
        <g id="Group" transform="translate(4.000000, 0.000000)" stroke="#FFFFFF" stroke-width="9">
            <path d="M0.907142959,61.1361454 C0.907142959,44.1151983 0.445400976,17.8471121 10.860268,8.12442661 C18.1875606,1.2841125 16.1529622,27.5073583 19.891518,36.8080204 C21.4603219,40.7108416 24.0644169,44.1495187 26.6688617,47.4525516 C28.1017522,49.2697851 30.7811544,54.0571904 31.891518,52.0267704 C33.9492139,48.2640506 30.4956008,14.2749389 37.282143,14.6947391 C47.9476511,15.3544834 55.3054761,48.961064 57.4501117,56.6283329" id="Path" class="qjjdczZZ_0"></path>
            <path d="M68.9453125,32.9296875 C68.9453125,37.2929688 68.4369953,41.6859603 68.9453125,46.0195312 C70.6095612,60.2077975 84.719341,46.843451 86.859375,41.6796875 C87.7940831,39.4242972 84.6576757,35.4104497 86.859375,34.3554688 C88.8826304,33.3859922 87.3506621,38.9730627 88.546875,40.8710938 C91.0755123,44.8832827 94.7057292,48.0846354 97.7851562,51.6914062" id="Path-2" class="qjjdczZZ_1"></path>
            <path d="M114.589844,8.8828125 C114.589844,24.5455729 112.87664,71.4398766 114.589844,55.8710938 L114.589844,43.734375 C116.108437,29.9341215 128.808413,33.9845051 134.195312,41.9570312 C137.896283,47.4344093 136.765625,52.5342195 136.765625,58.7890625" id="Path-3" class="qjjdczZZ_2"></path>
            <path d="M162.890625,36.1367188 C157.615052,36.1367188 149.27016,48.9469189 152.78125,53.5429688 C163.2281,67.2179932 167.775309,51.4252279 167.105469,47.1523438 C166.471938,43.1110722 165.513955,39.0891373 164.070312,35.2617188 C163.618141,34.0629101 163.316785,38.0692266 164.070312,39.1054688 L166.855469,44.3515625 C170.030995,48.7185089 173.647135,52.7473958 177.042969,56.9453125" id="Path-4" class="qjjdczZZ_3"></path>
            <path d="M186.339844,42.5078125 C188.480429,76.0608387 186.251824,46.3719505 187.363281,30.9921875 C187.513949,28.907325 188.377642,23.5156471 189.667969,25.1601562 L191.289062,24.5039062 C193.897309,27.8280925 196.329469,31.436772 197.722656,35.4257812 C199.405661,40.2446026 196.577511,47.0928051 200.371094,50.5078125 C202.95304,52.8320969 201.691914,43.5611308 203.398438,40.5351562 C204.533025,38.5233274 206.473471,36.8753387 208.585938,35.9414062 C210.401231,35.1388554 213.011997,34.3360783 214.53125,35.6132812 C218.100654,38.6140005 218.48461,49.7076135 218.886719,53.265625" id="Path-5" class="qjjdczZZ_4"></path>
            <path d="M234.199219,55.046875 C234.199219,49.9036458 231.302655,43.8672136 234.199219,39.6171875 C236.750748,35.873419 243.566536,33.2591162 247.265625,35.875 C251.328096,38.747857 245.06808,48.849652 249.726562,50.5976562 C253.933186,52.176109 253.910504,41.9876204 257.863281,39.8515625 C272.722817,31.8215558 269.058594,53.7309833 269.058594,57.7109375" id="Path-6" class="qjjdczZZ_5"></path>
            <path d="M295.507812,47.3671875 C295.507812,19.954502 279.752414,39.8508933 283.617188,50.9492188 C284.371126,53.1142747 286.247542,55.2929558 288.480469,55.8125 C295.0523,57.3415946 301.958451,57.0837312 308.699219,56.7851562 C309.699723,56.74084 310.21224,55.4726562 310.96875,54.8164062" id="Path-7" class="qjjdczZZ_6"></path>
            <path d="M338.875,33.1171875 C336.384115,33.1171875 333.844666,32.6277242 331.402344,33.1171875 C306.062521,38.195516 350.731476,73.3723891 342.601562,45.1484375 C340.470179,37.749089 336.735406,30.8935859 334.34375,23.5742188 C332.781302,18.7925414 331.955729,13.8007812 330.761719,8.9140625" id="Path-8" class="qjjdczZZ_7"></path>
            <path d="M411.480469,5.97265625 C411.480469,17.1621196 422.113433,47.3443403 419.164062,50.0898438 C413.372912,55.4806981 390.969486,61.6122444 387.863281,49.9023438" id="Path-9" class="qjjdczZZ_8"></path>
            <path d="M391.492188,11.1757812 C425.948006,11.1757812 413.085619,16.2654382 432.519531,4.94140625" id="Path-10" class="qjjdczZZ_9"></path>
            <path d="M440.730469,34.5625 C448.4283,34.5625 463.542185,32.2241843 464.234375,44.671875 C464.372651,47.1584937 465.434663,50.8824497 463.25,52.078125 C456.18961,55.9423058 430.137533,49.6172534 443.699219,38.1796875" id="Path-11" class="qjjdczZZ_10"></path>
            <path d="M481.398438,0.25 C487.217867,121.630057 469.311671,-4.90679312 502.175781,25.078125 C519.042946,40.4675745 492.648999,60.2471224 480.882812,38.6757812" id="Path-12" class="qjjdczZZ_11"></path>
            <path d="M534.386719,33.0898437 C548.198642,27.5216864 552.838015,23.3460837 529.546875,22.8515625 C527.268994,22.8031982 523.89793,21.8382407 522.78125,23.8242187 C511.917759,43.1445797 538.708523,57.53986 550.71875,43.8203125" id="Path-13" class="qjjdczZZ_12"></path>
            <path d="M519.634581,36.2492669 C532.21953,35.5000566 526.40328,36.6442441 537.170056,33.2914759" id="Path-15" class="qjjdczZZ_13"></path>
        </g>
    </g>
<style data-made-with="vivus-instant">.qjjdczZZ_0{stroke-dasharray:197 199;stroke-dashoffset:198;animation:qjjdczZZ_draw_0 2700ms ease 0ms infinite,qjjdczZZ_fade 2700ms linear 0ms infinite;}.qjjdczZZ_1{stroke-dasharray:69 71;stroke-dashoffset:70;animation:qjjdczZZ_draw_1 2700ms ease 0ms infinite,qjjdczZZ_fade 2700ms linear 0ms infinite;}.qjjdczZZ_2{stroke-dasharray:111 113;stroke-dashoffset:112;animation:qjjdczZZ_draw_2 2700ms ease 0ms infinite,qjjdczZZ_fade 2700ms linear 0ms infinite;}.qjjdczZZ_3{stroke-dasharray:86 88;stroke-dashoffset:87;animation:qjjdczZZ_draw_3 2700ms ease 0ms infinite,qjjdczZZ_fade 2700ms linear 0ms infinite;}.qjjdczZZ_4{stroke-dasharray:124 126;stroke-dashoffset:125;animation:qjjdczZZ_draw_4 2700ms ease 0ms infinite,qjjdczZZ_fade 2700ms linear 0ms infinite;}.qjjdczZZ_5{stroke-dasharray:90 92;stroke-dashoffset:91;animation:qjjdczZZ_draw_5 2700ms ease 0ms infinite,qjjdczZZ_fade 2700ms linear 0ms infinite;}.qjjdczZZ_6{stroke-dasharray:67 69;stroke-dashoffset:68;animation:qjjdczZZ_draw_6 2700ms ease 0ms infinite,qjjdczZZ_fade 2700ms linear 0ms infinite;}.qjjdczZZ_7{stroke-dasharray:95 97;stroke-dashoffset:96;animation:qjjdczZZ_draw_7 2700ms ease 0ms infinite,qjjdczZZ_fade 2700ms linear 0ms infinite;}.qjjdczZZ_8{stroke-dasharray:81 83;stroke-dashoffset:82;animation:qjjdczZZ_draw_8 2700ms ease 0ms infinite,qjjdczZZ_fade 2700ms linear 0ms infinite;}.qjjdczZZ_9{stroke-dasharray:43 45;stroke-dashoffset:44;animation:qjjdczZZ_draw_9 2700ms ease 0ms infinite,qjjdczZZ_fade 2700ms linear 0ms infinite;}.qjjdczZZ_10{stroke-dasharray:72 74;stroke-dashoffset:73;animation:qjjdczZZ_draw_10 2700ms ease 0ms infinite,qjjdczZZ_fade 2700ms linear 0ms infinite;}.qjjdczZZ_11{stroke-dasharray:153 155;stroke-dashoffset:154;animation:qjjdczZZ_draw_11 2700ms ease 0ms infinite,qjjdczZZ_fade 2700ms linear 0ms infinite;}.qjjdczZZ_12{stroke-dasharray:89 91;stroke-dashoffset:90;animation:qjjdczZZ_draw_12 2700ms ease 0ms infinite,qjjdczZZ_fade 2700ms linear 0ms infinite;}.qjjdczZZ_13{stroke-dasharray:18 20;stroke-dashoffset:19;animation:qjjdczZZ_draw_13 2700ms ease 0ms infinite,qjjdczZZ_fade 2700ms linear 0ms infinite;}@keyframes qjjdczZZ_draw{100%{stroke-dashoffset:0;}}@keyframes qjjdczZZ_fade{0%{stroke-opacity:1;}92.5925925925926%{stroke-opacity:1;}100%{stroke-opacity:0;}}@keyframes qjjdczZZ_draw_0{0%{stroke-dashoffset: 198}61.72839506172839%{ stroke-dashoffset: 0;}100%{ stroke-dashoffset: 0;}}@keyframes qjjdczZZ_draw_1{2.3741690408357075%{stroke-dashoffset: 70}64.1025641025641%{ stroke-dashoffset: 0;}100%{ stroke-dashoffset: 0;}}@keyframes qjjdczZZ_draw_2{4.748338081671415%{stroke-dashoffset: 112}66.4767331433998%{ stroke-dashoffset: 0;}100%{ stroke-dashoffset: 0;}}@keyframes qjjdczZZ_draw_3{7.122507122507122%{stroke-dashoffset: 87}68.85090218423552%{ stroke-dashoffset: 0;}100%{ stroke-dashoffset: 0;}}@keyframes qjjdczZZ_draw_4{9.49667616334283%{stroke-dashoffset: 125}71.22507122507122%{ stroke-dashoffset: 0;}100%{ stroke-dashoffset: 0;}}@keyframes qjjdczZZ_draw_5{11.870845204178536%{stroke-dashoffset: 91}73.59924026590693%{ stroke-dashoffset: 0;}100%{ stroke-dashoffset: 0;}}@keyframes qjjdczZZ_draw_6{14.245014245014245%{stroke-dashoffset: 68}75.97340930674264%{ stroke-dashoffset: 0;}100%{ stroke-dashoffset: 0;}}@keyframes qjjdczZZ_draw_7{16.619183285849953%{stroke-dashoffset: 96}78.34757834757833%{ stroke-dashoffset: 0;}100%{ stroke-dashoffset: 0;}}@keyframes qjjdczZZ_draw_8{18.99335232668566%{stroke-dashoffset: 82}80.72174738841404%{ stroke-dashoffset: 0;}100%{ stroke-dashoffset: 0;}}@keyframes qjjdczZZ_draw_9{21.367521367521366%{stroke-dashoffset: 44}83.09591642924975%{ stroke-dashoffset: 0;}100%{ stroke-dashoffset: 0;}}@keyframes qjjdczZZ_draw_10{23.741690408357073%{stroke-dashoffset: 73}85.47008547008546%{ stroke-dashoffset: 0;}100%{ stroke-dashoffset: 0;}}@keyframes qjjdczZZ_draw_11{26.11585944919278%{stroke-dashoffset: 154}87.84425451092117%{ stroke-dashoffset: 0;}100%{ stroke-dashoffset: 0;}}@keyframes qjjdczZZ_draw_12{28.49002849002849%{stroke-dashoffset: 90}90.21842355175687%{ stroke-dashoffset: 0;}100%{ stroke-dashoffset: 0;}}@keyframes qjjdczZZ_draw_13{30.864197530864203%{stroke-dashoffset: 19}92.5925925925926%{ stroke-dashoffset: 0;}100%{ stroke-dashoffset: 0;}}</style></svg>